<svg xmlns="http://www.w3.org/2000/svg" viewBox="0 0 330 70" style="fill: #fff;"><path d="M327,3V67H3V3H327m3-3H0V70H330V0Z" ></path><path d="M30,46.36V27a2.43,2.43,0,0,1,2.53-2.51h6.6c5.17,0,8.69,3.12,8.69,7.74S44.23,40,39.13,40H35v6.4a2.48,2.48,0,1,1-5,0Zm9.09-10.69a3.32,3.32,0,0,0,3.67-3.49c0-2.07-1.39-3.42-3.67-3.42H35v6.91Z"></path><path d="M69.08,46.51a2.35,2.35,0,0,1-2.42,2.36,2.51,2.51,0,0,1-2.34-1.74l-1-2.48H53.06l-1,2.48a2.43,2.43,0,0,1-2.31,1.74,2.38,2.38,0,0,1-2.46-2.36,4.17,4.17,0,0,1,.29-1.31l8.29-19.53a2.48,2.48,0,0,1,4.69,0L68.79,45.2A3.29,3.29,0,0,1,69.08,46.51Zm-14.4-5.89h7L58.2,31.24Z"></path><path d="M96.07,46.51v5a2.48,2.48,0,1,1-4.95,0V48.44H76.05v3.05a2.48,2.48,0,1,1-5,0v-5A2.48,2.48,0,0,1,73.41,44c3-3.27,4.4-8.15,4.4-15.6V27a2.45,2.45,0,0,1,2.53-2.51h10A2.43,2.43,0,0,1,92.84,27V44h.7A2.45,2.45,0,0,1,96.07,46.51ZM78.51,44h9.38V28.87H82.54C82.47,35.78,81.18,40.65,78.51,44Z"></path><path d="M120.75,26.47V46.36a2.48,2.48,0,1,1-5,0V33.05L104.28,47.82a2.48,2.48,0,0,1-4.51-1.42V26.51a2.48,2.48,0,1,1,5,0V39.89l11.19-14.44A2.8,2.8,0,0,1,118.29,24,2.44,2.44,0,0,1,120.75,26.47Z"></path><path d="M150.59,36.44A12.88,12.88,0,1,1,137.68,24,12.57,12.57,0,0,1,150.59,36.44Zm-20.64,0a7.77,7.77,0,1,0,15.54,0,7.77,7.77,0,1,0-15.54,0Z"></path><path d="M197.52,26.51V45.93A2.44,2.44,0,0,1,195,48.44H167.57A2.44,2.44,0,0,1,165,45.93V26.51a2.48,2.48,0,1,1,5,0V44h8.83V26.51a2.48,2.48,0,1,1,5,0V44h8.8V26.51a2.48,2.48,0,1,1,5,0Z"></path><path d="M208.52,46.36V28.87h-5.75a2.22,2.22,0,0,1-2.28-2.22,2.2,2.2,0,0,1,2.28-2.21h16.46a2.17,2.17,0,0,1,2.27,2.21,2.22,2.22,0,0,1-2.27,2.22h-5.76V46.36a2.48,2.48,0,1,1-4.95,0Z"></path><path d="M242,46.51a2.35,2.35,0,0,1-2.42,2.36,2.51,2.51,0,0,1-2.35-1.74l-1-2.48H226l-1,2.48a2.43,2.43,0,0,1-2.31,1.74,2.38,2.38,0,0,1-2.46-2.36,4.17,4.17,0,0,1,.29-1.31l8.29-19.53a2.48,2.48,0,0,1,4.69,0L241.7,45.2A3.32,3.32,0,0,1,242,46.51Zm-14.41-5.89h7l-3.44-9.38Z"></path><path d="M246,46.33V26.55a2.48,2.48,0,1,1,4.95,0v7.09h10.71V26.51a2.48,2.48,0,1,1,5,0V46.33a2.48,2.48,0,1,1-5,0V38.07H250.94v8.26a2.48,2.48,0,1,1-4.95,0Z"></path><path d="M277.09,26.51v6.18H282c5.28,0,8.84,3.27,8.84,7.86s-3.52,7.89-8.84,7.89h-7.37a2.44,2.44,0,0,1-2.52-2.51V26.51A2.41,2.41,0,0,1,274.59,24,2.45,2.45,0,0,1,277.09,26.51Zm0,10.47v7.13H282c2.42,0,3.78-1.46,3.78-3.53A3.44,3.44,0,0,0,282,37Zm18,9.38V26.51a2.48,2.48,0,1,1,4.95,0V46.36a2.48,2.48,0,1,1-4.95,0Z"></path></svg>