<svg xmlns="http://www.w3.org/2000/svg" viewBox="0 0 500 500"><defs><style>.cls-1{fill:#fff;}.cls-2{fill:#f15a24;}.cls-3{fill:red;}.cls-3,.cls-4,.cls-5{stroke:#f15a24;}.cls-3,.cls-4{stroke-linejoin:round;stroke-width:25px;}.cls-4,.cls-5{fill:none;}.cls-4{stroke-linecap:round;}.cls-5{stroke-miterlimit:10;stroke-width:2.06px;}</style></defs><g id="Слой_2" data-name="Слой 2"><g id="Слой_3" data-name="Слой 3"><rect class="cls-1" width="500" height="500" rx="50"/><path class="cls-2" d="M145.45,376.33v54.78a9.31,9.31,0,0,1-9.57,9.57H54.26a9.31,9.31,0,0,1-9.57-9.57V376.33a9.46,9.46,0,1,1,18.92,0v47.3h22v-47.3a9.46,9.46,0,1,1,18.92,0v47.3h22v-47.3a9.46,9.46,0,1,1,18.92,0Z"/><path class="cls-2" d="M175.37,432.43v-47.3H161.18a8.53,8.53,0,1,1,0-17.05h47.3a8.33,8.33,0,0,1,8.69,8.47,8.41,8.41,0,0,1-8.69,8.58H194.29v47.3a9.46,9.46,0,1,1-18.92,0Z"/><path class="cls-2" d="M278,433c0,5.17-4,9-9.35,9-4.07,0-7.15-2.31-8.91-6.82l-1.54-3.85h-26l-1.54,3.85c-1.76,4.51-4.84,6.82-8.91,6.82-5.39,0-9.35-3.85-9.35-9a13,13,0,0,1,1-4.62L236.2,373c1.65-4.07,4.73-6.27,9-6.27s7.37,2.2,9,6.27L277,428.36A13,13,0,0,1,278,433Zm-40.15-16.83h14.74l-7.37-21.23Z"/><path class="cls-2" d="M288.67,432.21V376.55c0-5.61,4-9.79,9.46-9.79s9.46,4.18,9.46,9.79v18H334.1V376.33a9.46,9.46,0,1,1,18.92,0v55.88c0,5.61-4.07,9.79-9.46,9.79s-9.46-4.18-9.46-9.79V411.64H307.59v20.57c0,5.61-4.07,9.79-9.46,9.79S288.67,437.82,288.67,432.21Z"/><path class="cls-2" d="M386.34,376.33v14.3h11.45c16.39,0,28,10.45,28,25.08,0,14.85-11.43,25-28,25H377a9.32,9.32,0,0,1-9.58-9.57V376.33a9.46,9.46,0,1,1,18.92,0Zm0,30.8v17.05H397.9c5.27,0,8.68-3.41,8.68-8.47s-3.41-8.58-8.68-8.58Zm50.06,25.3v-56.1a9.46,9.46,0,1,1,18.92,0v56.1a9.46,9.46,0,1,1-18.92,0Z"/><path class="cls-2" d="M62.8,347.6c0,5.13-3.35,8.81-8,8.81a5.93,5.93,0,0,1-4.29-1.54v4.66a2.88,2.88,0,1,1-5.76,0V341.67a2.76,2.76,0,0,1,2.82-2.82,2.72,2.72,0,0,1,2.64,1.88,5.73,5.73,0,0,1,4.59-1.88C59.45,338.85,62.8,342.47,62.8,347.6Zm-5.89,0a3.26,3.26,0,0,0-3.29-3.55,3.23,3.23,0,0,0-3.25,3.52,3.28,3.28,0,1,0,6.54,0Z"/><path class="cls-2" d="M80.7,346.29v7.24a2.81,2.81,0,0,1-5.37,1.21,6.85,6.85,0,0,1-4.69,1.67c-3.45,0-5.79-2.08-5.79-5.16s2.44-5,6.57-5h3.51V346c0-1.38-.93-2.15-2.58-2.15a4.66,4.66,0,0,0-2.64.84,2.56,2.56,0,0,1-1.54.57,2.35,2.35,0,0,1-2.42-2.34A2.9,2.9,0,0,1,67,340.63a9.6,9.6,0,0,1,6-1.78C78,338.85,80.7,341.53,80.7,346.29Zm-5.77,3.59v-.14H72.22c-1,0-1.54.47-1.54,1.28s.63,1.3,1.71,1.3A2.36,2.36,0,0,0,74.93,349.88Z"/><path class="cls-2" d="M105,354.1v4.12a2.88,2.88,0,1,1-5.76,0V356H88.87v2.21a2.88,2.88,0,1,1-5.76,0V354.1A2.84,2.84,0,0,1,86,351.18h.1c1.78-2.24,2.42-4.75,2.42-9.14v0a2.77,2.77,0,0,1,2.91-2.74H99a2.84,2.84,0,0,1,2.92,2.91v9h.2A2.84,2.84,0,0,1,105,354.1Zm-12.73-2.92h3.85v-7.1H94.3C94.23,347.16,93.6,349.51,92.29,351.18Z"/><path class="cls-2" d="M124.35,341.77V353.5a2.88,2.88,0,1,1-5.76,0v-5l-5.46,6.53a3.21,3.21,0,0,1-2.55,1.34,2.83,2.83,0,0,1-2.88-2.91V341.77a2.88,2.88,0,1,1,5.76,0v5l5.47-6.54a3.2,3.2,0,0,1,2.54-1.34A2.83,2.83,0,0,1,124.35,341.77Z"/><path class="cls-2" d="M145.66,347.63a9.14,9.14,0,1,1-9.15-8.78A8.89,8.89,0,0,1,145.66,347.63Zm-12.36,0a3.2,3.2,0,0,0,3.25,3.49,3.5,3.5,0,0,0,0-7A3.21,3.21,0,0,0,133.3,347.63Z"/><path class="cls-2" d="M333,84.86c9.46.71,16.51,2.94,20.41,6.47,1.18,1.06,4.74,4.28,5.85,14.24l13.29,169.18c-.22,3.49-2.62,7.92-6.4,11.73-5.12,5.16-11.85,8.37-17.56,8.37h-.45l-.76,0H304.73c-14.12-2.87-18.68-9-21.07-14.79l-9.79-31a25,25,0,0,0-47.67,0l-9.89,31.29c-1.34,3.6-4.64,10.86-21.15,14.47H152.72l-.8,0h-.47c-9.9,0-22.4-9.52-23.83-20.92l13.21-168.19C142.14,95.27,146,92,147.22,90.86c4.87-4.23,13.29-5.61,19.72-6H333m.87-25H166.23c-30.56,1.61-47.11,16.27-50.28,43.39L102.54,274c1.31,25.22,25.41,45.89,48.91,45.89.42,0,.84,0,1.27,0h44.94q33.14-6.19,42.32-31.4L250,256.6l10,31.83c6.36,16.42,19.68,27.5,42.32,31.4h44.94c.4,0,.81,0,1.21,0,24.68,0,49.18-22.88,49-45.89l-13.4-170.71C381.45,77.7,366.27,62,333.84,59.86Z"/><line class="cls-3" x1="120.03" y1="125.57" x2="379.63" y2="125.57"/><line class="cls-4" x1="216.35" y1="158.66" x2="241.25" y2="135.02"/><line class="cls-4" x1="283.73" y1="158.66" x2="258.83" y2="135.02"/><rect class="cls-5" x="160.1" y="184.41" width="25.75" height="25.75" rx="3.69" transform="translate(-88.84 180.09) rotate(-45)"/><path class="cls-2" d="M189.57,188.32a1.07,1.07,0,0,0-.7.25l-6.12,5a1.13,1.13,0,0,0-.17,1.59,1.13,1.13,0,0,0,1.59.17l6.12-5a1.13,1.13,0,0,0,.16-1.58,1.11,1.11,0,0,0-.88-.42Z"/><path class="cls-2" d="M185.34,184.66a1.18,1.18,0,0,0-.71.25l-6.12,5a1.12,1.12,0,0,0,.71,2,1.12,1.12,0,0,0,.71-.25l6.12-5a1.14,1.14,0,0,0,.17-1.59,1.16,1.16,0,0,0-.88-.42Z"/><path class="cls-2" d="M181.7,181a1.12,1.12,0,0,0-.71.25l-6.12,5a1.13,1.13,0,0,0-.17,1.58,1.13,1.13,0,0,0,1.59.17l6.12-5a1.13,1.13,0,0,0,.17-1.58h0a1.13,1.13,0,0,0-.88-.42Z"/><path class="cls-2" d="M170.42,206.38a1.12,1.12,0,0,0-.71.25l-6.12,5a1.13,1.13,0,0,0,1.42,1.75l6.12-5a1.13,1.13,0,0,0,.17-1.58,1.11,1.11,0,0,0-.88-.42Z"/><path class="cls-2" d="M166.18,202.73a1.07,1.07,0,0,0-.7.25l-6.12,5a1.13,1.13,0,0,0-.17,1.59,1.14,1.14,0,0,0,.88.42,1.18,1.18,0,0,0,.71-.25l6.12-5a1.13,1.13,0,0,0-.72-2Z"/><path class="cls-2" d="M162.54,199.07a1.12,1.12,0,0,0-.71.25l-6.12,5a1.13,1.13,0,0,0-.16,1.58,1.11,1.11,0,0,0,.88.42,1.07,1.07,0,0,0,.7-.25l6.12-4.95a1.13,1.13,0,0,0,.17-1.59,1.11,1.11,0,0,0-.88-.42Z"/><path class="cls-2" d="M175.81,206.34a1.13,1.13,0,0,0-.88,1.83l5,6.12a1.13,1.13,0,0,0,1.59.17,1.14,1.14,0,0,0,.16-1.59l-4.95-6.12a1.15,1.15,0,0,0-.88-.41Z"/><path class="cls-2" d="M179.46,202.73a1.12,1.12,0,0,0-.71.25h0a1.13,1.13,0,0,0-.16,1.58l4.95,6.12a1.13,1.13,0,0,0,1.59.17,1.14,1.14,0,0,0,.17-1.59l-5-6.12a1.13,1.13,0,0,0-.88-.41Z"/><path class="cls-2" d="M183.45,198.87a1.07,1.07,0,0,0-.7.25h0a1.12,1.12,0,0,0-.17,1.58l4.95,6.12a1.13,1.13,0,0,0,1.59.17,1.14,1.14,0,0,0,.17-1.59l-5-6.12a1.13,1.13,0,0,0-.88-.41Z"/><path class="cls-2" d="M158,187.18a1.09,1.09,0,0,0-.7.25,1.13,1.13,0,0,0-.17,1.59l4.95,6.12a1.16,1.16,0,0,0,.88.42,1.13,1.13,0,0,0,.88-1.84l-5-6.12a1.14,1.14,0,0,0-.88-.42Z"/><path class="cls-2" d="M161.62,183.57a1.12,1.12,0,0,0-.71.25,1.14,1.14,0,0,0-.17,1.59l5,6.12a1.14,1.14,0,0,0,.88.42,1.18,1.18,0,0,0,.71-.25,1.14,1.14,0,0,0,.16-1.59L162.5,184a1.11,1.11,0,0,0-.88-.42Z"/><path class="cls-2" d="M165.61,179.71a1.12,1.12,0,0,0-.71.25,1.14,1.14,0,0,0-.16,1.59l4.95,6.12a1.14,1.14,0,0,0,.88.42,1.18,1.18,0,0,0,.71-.25,1.14,1.14,0,0,0,.17-1.59l-5-6.12a1.11,1.11,0,0,0-.88-.42Z"/></g></g></svg>